<svg xmlns="http://www.w3.org/2000/svg" viewBox="0 0 1000 1000" fill="none">
  <path d="M500 0C776.142 0 1000 223.858 1000 500C1000 776.142 776.142 1000 500 1000C223.858 1000 0 776.142 0 500C0 223.858 223.858 0 500 0Z" fill="#FF5A5F"/>
  <path d="M668.971 573.043C668.631 573.773 667.952 574.453 667.562 575.182C661.644 586.068 654.116 596.275 645.937 606.482C629.651 626.557 611.095 644.434 589.065 657.581C578.518 663.158 567.971 667.051 557.084 667.051C546.197 667.051 536.67 662.478 528.151 656.902C510.615 644.094 497.808 626.897 488.281 607.551C473.017 577.661 465.179 546.111 461.626 513.881C459.733 494.145 459.393 474.75 461.965 455.013C465.179 428.294 472.677 402.595 483.904 378.257C491.742 361.061 501.949 344.884 514.756 330.62C527.562 316.356 542.486 303.889 560.022 295.711C577.558 287.532 596.615 285.299 615.332 291.215C622.489 293.448 629.311 296.661 635.728 300.554C650.313 309.073 662.439 321.199 672.646 334.685C686.91 353.742 697.117 375.432 704.955 397.698C710.192 412.962 714.085 428.565 716.318 444.51C719.531 467.116 720.6 490.051 718.367 512.687C716.133 534.953 711.56 556.879 703.721 577.99C701.827 583.456 699.594 588.582 696.72 593.708C695.651 595.941 693.078 598.174 690.845 598.514C685.389 598.854 680.273 598.854 674.817 598.514C670.584 598.174 669.185 596.61 668.845 592.378C668.505 586.242 667.825 580.447 668.845 574.651C669.525 560.387 669.865 546.122 669.865 531.858C669.865 516.913 669.525 502.309 668.845 487.364C668.505 475.578 667.825 463.792 666.805 452.006C666.465 448.453 665.446 444.899 665.106 441.346C664.766 437.793 662.873 436.094 659.66 436.094C654.203 435.754 648.747 435.414 643.291 435.414C635.452 435.414 635.112 435.754 635.112 443.253C635.112 470.993 635.112 498.732 634.772 526.131C634.772 538.257 634.772 550.723 634.432 562.849C634.092 571.368 634.092 579.887 633.752 588.406C633.752 591.959 632.733 593.998 629.18 594.678C625.626 595.357 622.073 596.037 618.52 596.037C614.626 596.037 611.413 596.037 607.52 595.357C603.966 594.678 602.947 593.318 602.607 589.765C602.267 585.192 601.587 580.96 601.587 576.387C601.587 563.582 601.587 550.723 601.587 537.917C601.587 477.471 601.587 417.026 601.587 356.58C601.587 347.721 601.587 338.862 601.587 330.003C601.587 325.43 602.947 322.896 607.52 322.557C617.047 321.877 626.575 321.877 636.103 322.557C640.336 323.237 642.229 325.43 642.569 329.663C642.909 334.576 644.988 335.595 649.561 335.595C670.575 335.595 691.59 335.595 712.605 335.595C716.838 335.595 718.707 333.556 719.046 329.324C719.046 329.324 719.046 329.324 719.046 328.984C719.726 324.071 722.299 322.217 727.076 322.217C732.593 321.877 738.11 321.877 743.627 322.217C749.483 322.557 751.037 324.751 750.357 330.607C749.677 336.123 748.997 341.64 748.997 347.157C747.977 366.893 747.638 386.97 746.958 406.366C745.938 438.257 744.919 470.149 743.899 502.38C743.559 517.325 743.219 532.61 742.879 547.556C742.539 558.661 741.859 569.767 741.52 580.873C741.18 588.372 740.5 595.871 739.82 603.029C739.48 609.509 736.947 612.043 730.807 612.383C724.666 612.723 718.526 612.723 712.045 612.383C705.905 612.043 702.351 608.83 702.351 601.67V596.884C700.458 595.525 699.098 595.865 697.739 597.905C688.2 615.782 675.733 631.067 660.129 643.532C649.243 652.391 637.336 659.55 624.19 663.784C605.793 669.64 587.736 669.3 569.679 663.104C559.112 659.211 549.226 653.974 539.68 647.378C522.484 634.911 508.56 619.626 496.773 602.09C484.647 583.693 476.128 563.958 470.332 542.711C460.786 507.675 458.553 471.62 465.371 435.564C470.332 408.824 479.52 383.465 493.784 360.519C507.028 339.165 523.884 321.289 544.218 306.683C557.365 297.484 571.629 290.665 587.254 287.452C600.74 284.579 614.225 284.919 627.711 287.453C645.427 290.666 661.604 298.164 676.528 308.711C690.453 318.578 702.239 330.364 712.106 344.288C712.786 345.307 713.466 345.987 714.485 346.667C714.825 346.667 715.505 346.667 715.505 346.327C715.505 339.849 715.505 333.371 715.165 326.892C715.165 323.679 716.185 321.446 719.738 320.766C724.621 319.747 729.844 319.747 734.727 320.766C738.96 321.446 739.98 323.339 740.32 327.572C740.32 330.106 740.66 332.719 740.66 335.253C740.66 408.824 740.32 482.396 740.32 555.628C740.32 562.446 740.32 569.265 740.32 576.083C740.32 580.656 740.32 585.229 739.98 589.802C739.98 591.356 739.3 592.375 737.94 592.715C736.241 593.055 735.221 592.715 733.862 591.696C733.522 591.356 732.842 591.016 732.502 590.676C729.969 587.803 727.096 585.27 724.563 582.057C722.37 579.523 721.69 575.97 720.67 572.757C705.725 533.803 715.271 484.629 749.287 455.418C750.647 454.059 752.006 452.699 753.706 451.34C755.25 450.32 754.57 449.64 754.23 448.281C752.87 444.048 751.851 439.815 750.491 435.582C744.011 414.568 734.464 394.832 721.998 376.775C703.601 350.056 680.315 328.362 653.255 311.166C630.99 297.241 607.365 287.454 581.665 282.541C556.306 277.628 531.627 278.307 507.288 285.126C480.209 292.625 455.87 305.771 433.604 323.307C407.565 343.724 387.149 370.102 373.905 402.334C361.099 433.546 356.865 466.118 359.098 499.37C360.797 524.049 366.253 547.728 375.44 570.334C381.576 585.937 389.754 600.202 399.281 613.348C412.087 631.065 427.032 646.329 444.908 658.816C462.105 670.942 481.162 679.46 501.558 684.714C527.597 691.192 553.636 690.852 579.335 684.034C599.391 678.778 617.787 669.24 635.324 657.453C658.93 641.277 678.666 621.201 694.842 597.595C695.182 596.916 695.861 596.236 696.201 595.556C695.862 587.718 695.182 580.219 694.842 572.04C694.842 565.222 694.162 558.403 694.162 551.584C694.162 550.225 694.162 548.865 695.522 548.185C697.221 547.166 697.901 548.185 699.261 549.205C699.941 549.884 700.281 550.225 700.961 550.904C701.981 551.584 702.32 552.944 702.32 554.303C702.66 570.139 702.32 585.636 703.34 601.132C703.34 603.326 703.34 605.519 703.34 607.712C703.34 610.585 704.7 612.778 707.573 613.458C714.051 614.817 720.87 614.817 727.348 613.798C730.901 613.118 732.261 611.074 732.261 607.521C732.261 603.288 732.601 599.055 732.601 594.822C733.281 573.127 733.621 551.093 734.301 529.398C734.641 509.323 734.981 489.247 735.321 469.172C735.661 448.776 735.661 428.381 736.001 408.325C736.001 401.167 736.001 394.008 736.341 386.85C736.341 382.617 735.661 380.084 731.088 380.084C710.754 379.744 690.419 379.744 669.745 380.084C665.512 380.084 664.492 382.957 663.872 386.17C663.193 389.723 662.513 393.616 662.173 397.169C660.814 409.635 659.794 422.102 659.794 434.568C659.794 449.174 659.794 463.779 660.474 478.725C660.474 487.584 661.153 496.442 661.153 505.301C661.153 517.088 661.493 528.874 661.833 540.66C661.833 551.086 662.173 561.511 662.513 572.277C662.853 581.136 663.533 589.994 664.213 598.853C664.213 599.533 664.213 600.213 664.553 600.892C665.232 602.252 664.553 603.272 663.193 603.612C661.493 603.952 659.454 603.612 657.755 603.612C650.916 603.952 644.078 603.952 637.239 603.612C635.88 603.612 634.52 603.272 633.16 602.592C631.801 601.913 631.121 600.553 631.121 599.193C630.781 573.154 630.781 547.115 630.781 521.076C630.781 494.697 630.781 468.319 630.781 442.28C630.781 440.241 631.461 438.881 633.5 438.542C637.394 437.862 637.394 437.862 641.627 438.881C642.986 439.221 643.326 440.241 643.666 441.6C643.666 442.62 644.006 443.639 644.006 444.659C655.452 444.659 666.899 444.659 678.345 444.659C680.044 444.659 681.404 444.319 681.404 442.28C681.744 436.424 682.424 430.605 683.103 424.787C683.783 419.27 685.142 418.25 690.659 418.25C710.055 418.25 729.45 418.25 748.846 418.25C751.379 418.25 753.913 418.25 756.446 418.25C759.319 418.25 760.679 419.61 760.679 422.483C760.679 440.2 761.699 457.916 761.699 475.633C761.699 509.904 762.039 544.176 762.039 578.788C762.039 586.287 762.379 593.785 762.379 601.284C762.379 609.803 759.166 613.696 751.327 614.715C744.149 615.395 736.97 615.055 729.792 613.696C725.218 612.676 722.345 609.803 721.665 605.23C720.985 601.677 719.965 598.464 717.432 595.59C709.934 586.392 700.055 579.913 688.629 575.68C686.096 574.66 684.057 574.32 681.184 574.32C677.291 574.32 673.397 574.66 669.504 574.66C669.844 574.32 669.504 573.641 668.825 573.301L668.971 573.043Z" fill="white"/>
</svg>